<?xml version="1.0" encoding="iso-8859-1"?>
<!-- Generator: Adobe Illustrator 24.3.0, SVG Export Plug-In . SVG Version: 6.00 Build 0)  -->
<svg version="1.1" id="Layer_1" xmlns="http://www.w3.org/2000/svg" xmlns:xlink="http://www.w3.org/1999/xlink" x="0px" y="0px"
	 viewBox="0 0 500 500" style="enable-background:new 0 0 500 500;" xml:space="preserve">

<path style="fill:#82141C;" d="M234.621,97.458c-98.643,34.968-50.384,129.639-29.293,147.051
	c11.154,9.208,20.355,84.225,22.312,90.423c0.783,8.285-9.71,50.834-15.005,56.498c-17.502-13.227-45.146-70.199-44.867-87.503
	c25.818,23.567,41.899,7.522,24.529-34.708c-17.892-43.499-35.898-25.101-42.795-10.699c-18.547-8.139-38.363-50.887-40.19-69.937
	c12.005,8.09,22.965,24.53,48.539,21.921c-0.261-47.756-44.884-49.061-44.884-52.714c0-10.749,37.97-55.976,37.97-55.976
	c0.113-82.513,3.766-24.58,34.055-29.097C195.168,60.125,234.686,30,234.686,30s43.45,29.945,53.627,42.537
	c27.401-1.044,34.187-43.058,34.055,29.097c0,0,37.97,46.581,37.97,52.844c0,3.654-43.057,11.743-43.318,59.499
	c25.574,2.609,41.231-19.05,53.236-27.139c-1.827,19.05-31.315,74.634-40.45,81.941c-12.525-27.14-28.967-46.711-51.409,15.136
	c-26.486,72.991,8.087,78.549,19.311,78.027c-38.361,38.753-30.01,98.121-43.58,111.43c-4.959-23.094-5.481-211.378,13.83-229.645
	C287.827,224.932,333.264,132.427,234.621,97.458z"/>
<path style="fill:#82141C;" d="M239.491,299.441c0,0-2.782-17.745-15.308-38.622c-9.798-16.331-16.593-18.51-13.664-22.833
	c11.408-16.833,13.482-13.546,27.18-32.36l3.585-1.697c0,0,23.898,22.051,28.199,33.795c1.83,4.993-6.691,15.918-12.905,27.14
	c-6.917,12.494-9.238,24.628-14.6,32.106L239.491,299.441z"/>
</svg>
